<svg width="1200" height="320" viewBox="0 0 1200 320" fill="none" xmlns="http://www.w3.org/2000/svg">
  <defs>
    <linearGradient id="waveGradient" x1="0%" y1="0%" x2="100%" y2="100%">
      <stop offset="0%" style="stop-color:#3B82F6;stop-opacity:0.15" />
      <stop offset="50%" style="stop-color:#1E40AF;stop-opacity:0.1" />
      <stop offset="100%" style="stop-color:#1E3A8A;stop-opacity:0.05" />
    </linearGradient>
    <linearGradient id="waveGradient2" x1="0%" y1="0%" x2="100%" y2="100%">
      <stop offset="0%" style="stop-color:#60A5FA;stop-opacity:0.1" />
      <stop offset="100%" style="stop-color:#3B82F6;stop-opacity:0.05" />
    </linearGradient>
  </defs>
  
  <!-- Primary wave -->
  <path d="M0,96L48,112C96,128,192,160,288,160C384,160,480,128,576,122.7C672,117,768,139,864,149.3C960,160,1056,160,1152,138.7C1248,117,1344,75,1392,53.3L1440,32L1440,320L1392,320C1344,320,1248,320,1152,320C1056,320,960,320,864,320C768,320,672,320,576,320C480,320,384,320,288,320C192,320,96,320,48,320L0,320Z" fill="url(#waveGradient)"/>
  
  <!-- Secondary wave for depth -->
  <path d="M0,128L48,144C96,160,192,192,288,192C384,192,480,160,576,154.7C672,149,768,171,864,181.3C960,192,1056,192,1152,170.7C1248,149,1344,107,1392,85.3L1440,64L1440,320L1392,320C1344,320,1248,320,1152,320C1056,320,960,320,864,320C768,320,672,320,576,320C480,320,384,320,288,320C192,320,96,320,48,320L0,320Z" fill="url(#waveGradient2)"/>
  
  <!-- Subtle accent wave -->
  <path d="M0,224L48,213.3C96,203,192,181,288,181.3C384,181,480,203,576,213.3C672,224,768,224,864,213.3C960,203,1056,181,1152,170.7C1248,160,1344,160,1392,160L1440,160L1440,320L1392,320C1344,320,1248,320,1152,320C1056,320,960,320,864,320C768,320,672,320,576,320C480,320,384,320,288,320C192,320,96,320,48,320L0,320Z" fill="url(#waveGradient)" opacity="0.3"/>
</svg>